<?xml version="1.0" encoding="utf-8"?>
<!-- Generator: Adobe Illustrator 24.1.1, SVG Export Plug-In . SVG Version: 6.00 Build 0)  -->
<svg version="1.1" id="Layer_1" xmlns="http://www.w3.org/2000/svg" xmlns:xlink="http://www.w3.org/1999/xlink" x="0px" y="0px"
	 viewBox="0 0 262 141" style="enable-background:new 0 0 262 141;" xml:space="preserve">
<style type="text/css">
	.st0{clip-path:url(#SVGID_2_);}
	.st1{fill:#A14A9B;}
	.st2{fill:#2B4C90;}
	.st3{fill:#26BBB3;}
	.st4{font-family:'OpenSans-SemiboldItalic';}
	.st5{font-size:32.2655px;}
	.st6{fill:#868686;}
	.st7{font-family:'OpenSans-Regular';}
	.st8{font-size:10px;}
</style>
<g>
	<g>
		<defs>
			<rect id="SVGID_1_" x="60.1" y="68.6" width="188.6" height="76.1"/>
		</defs>
		<clipPath id="SVGID_2_">
			<use xlink:href="#SVGID_1_"  style="overflow:visible;"/>
		</clipPath>
		<g class="st0">
			<g>
				<g>
					<g>
						<path class="st1" d="M65.6,51.9h17.1c7.5,0,11.3,5.9,11.3,17.8c0,6-0.7,13.1-2.2,21.3c-1.5,8.2-3.8,14.5-7,19.1
							c-3.2,4.5-7.3,6.8-12.2,6.8H56.5l0.2-1.5h4.4l8.7-61.8h-4.4L65.6,51.9z M78.2,53.4l-8.7,61.8h2.9c2.5,0,4.3-0.7,5.6-2.1
							c1.2-1.4,2.1-3.9,2.6-7.3L87,61.2c0.2-1.1,0.3-2,0.3-2.6c0-3.4-1.7-5.1-5.1-5.1H78.2z"/>
					</g>
				</g>
				<g>
					<g>
						<path class="st1" d="M120.2,80.4c0.1-1,0.2-1.7,0.2-2.3c0-2.1-0.7-3.2-2.2-3.2c-1.3,0-2.9,1.1-4.8,3.3
							c-1.9,2.2-3.1,4.6-3.5,7.3l-4.4,31.3h-7.8l8.8-62.5h-4.4l0.3-1.5h4.1c3.2,0,5.9-0.3,8-0.8l-3.7,26.9c3-4.5,6.3-6.8,10.2-6.8
							c4.6,0,6.9,2.6,6.9,7.7c0,0.8-1.3,10.5-3.9,29c-0.2,1-0.3,2.1-0.3,3.2c0,1.8,0.5,2.7,1.4,2.7c1.7,0,3.1-2.1,4.2-6.4h1.5
							c-1.7,6.1-4.5,9.2-8.4,9.2c-1.7,0-3.2-0.8-4.4-2.3c-1.2-1.5-1.8-3.5-1.8-5.9c0-0.8,0.1-1.7,0.2-2.6L120.2,80.4z"/>
					</g>
				</g>
				<g>
					<g>
						<path class="st1" d="M162.1,117.6c-2.7,0-4.8-0.9-6.5-2.8c-1.7-1.8-2.5-4.3-2.5-7.3c0-1.2,0.3-4,0.9-8.4l2.5-18.4
							c0.2-1,0.3-2.1,0.3-3.1c0-1.9-0.5-2.8-1.4-2.8c-1.7,0-3.1,2.1-4.2,6.4h-1.5c1.7-6.1,4.4-9.2,8.4-9.2c1.7,0,3.1,0.8,4.3,2.3
							c1.2,1.5,1.8,3.5,1.8,5.9c0,0.8-0.1,1.6-0.2,2.6l-3.1,23.4c-0.3,2-0.4,3.5-0.4,4.4c0,1.4,0.3,2.6,0.8,3.6
							c0.5,0.9,1.3,1.4,2.2,1.4c1.9,0,3.9-1.7,6.2-5.1c2.2-3.4,4.2-8,6.1-13.7c1.8-5.8,2.8-10.1,2.8-13.1c0-1.6-0.8-2.5-2.3-2.9
							c-1.3-0.3-2.3-0.9-3.1-1.8c-0.8-0.8-1.2-1.8-1.2-2.9c0-1.2,0.3-2.2,1-2.9c0.7-0.7,1.6-1.1,2.7-1.1c3.1,0,4.7,3.8,4.7,11.5
							c0,3.5-1,8.3-3.1,14.5c-2.1,6.2-4.4,11-6.8,14.4C167.7,115.9,165,117.6,162.1,117.6z"/>
					</g>
				</g>
				<g>
					<g>
						<path class="st1" d="M201.2,100.7c0.8-2.3,1.9-5.6,3.3-9.9c1.4-4.3,2.5-7.7,3.5-10.2c1-2.5,1.8-4.3,2.4-5.3
							c0.6-1,1.4-1.8,2.3-2.4c0.9-0.6,1.8-0.8,2.7-0.8c1,0,1.8,0.4,2.5,1.1c0.6,0.7,1,1.7,1,2.8c0,1.1-0.3,1.9-1,2.5
							c-0.7,0.6-1.4,0.9-2.3,0.9c-0.7,0-1.4-0.4-2.3-1.1c-0.6-0.5-1-0.7-1.2-0.7c-0.5,0-1,0.5-1.5,1.4c-0.5,0.9-1.8,4.6-3.9,11.1
							c-3.5,10.7-6.7,19.3-9.7,25.9c-3,6.6-6,12-9.1,16.2c-3.1,4.2-5.6,6.3-7.5,6.3c-1.4,0-2.5-0.4-3.4-1.2
							c-0.9-0.8-1.3-1.9-1.3-3.3c0-1.2,0.4-2.2,1.2-3.1c0.8-0.9,1.8-1.3,3-1.3c1.2,0,2.2,0.4,2.9,1.3c0.6,0.7,1.2,1,1.9,1
							c0.8,0,2.2-1.5,4.1-4.4c1.9-2.9,4.3-7.3,7-13.2l-4.4-26.1c-1.2-7-2-10.9-2.3-11.8c-0.3-0.9-0.8-1.3-1.3-1.3
							c-2,0-3.8,2.1-5.3,6.3h-1.5c2.5-6,5.6-9.1,9.4-9.1c4.3,0,6.9,3,7.9,9L201.2,100.7z"/>
					</g>
				</g>
				<g>
					<g>
						<path class="st1" d="M239.6,72.8h7.7l-5,35.9c-0.2,1-0.3,2.1-0.3,3.2c0,1.8,0.5,2.7,1.4,2.7c1.7,0,3.1-2.1,4.2-6.4h1.5
							c-1.7,6.1-4.5,9.2-8.4,9.2c-1.4,0-2.7-0.5-3.8-1.6s-1.8-2.6-2.1-4.5c-1.8,4.2-4.6,6.2-8.4,6.2c-2.8,0-5.2-1.6-7.2-4.7
							c-2-3.2-3.1-7.2-3.1-12.1c0-4.1,0.9-8.5,2.7-13.2c1.8-4.7,4.1-8.5,7-11.3c2.9-2.8,5.6-4.2,8.3-4.2c1,0,2,0.3,3,1
							c1,0.7,1.7,1.5,2.1,2.6L239.6,72.8z M227.5,115.5c1,0,1.9-0.3,2.8-1c0.9-0.7,1.8-1.6,2.5-2.8s1.2-2.4,1.5-3.5
							c0.3-1.1,0.8-4,1.4-8.7l1.8-13c0.6-4,0.8-6.3,0.8-6.8c0-1.9-0.4-3.3-1.2-4.3c-0.8-1-1.9-1.5-3.1-1.5c-1.7,0-3.1,0.9-4.3,2.6
							c-1.1,1.7-2,3.7-2.5,5.9c-0.5,2.2-1.3,7-2.3,14.3c-1,7.3-1.5,11.3-1.5,12.1C223.6,113.3,224.9,115.5,227.5,115.5z"/>
					</g>
				</g>
			</g>
		</g>
	</g>
	<g>
		<path class="st2" d="M27.5,71.1l0.2-1.5l4.4,0l8.5-61.8l-4.4,0l0.2-1.5l30.1-0.1l-1.9,14.3l-1.5,0c0-4.5-0.6-7.7-1.8-9.7
			c-1.2-2-3.2-3-5.9-3l-6.2,0l-3.8,27.9l4.3,0c1.7,0,3.4-0.6,5-1.8c1.6-1.2,2.6-3.7,2.9-7.4l1.5,0l-2.8,20.8l-1.4,0
			c0.2-1.3,0.3-2.4,0.3-3.2c0-2.1-0.5-3.7-1.5-5c-1-1.2-2.3-1.8-3.9-1.8l-4.6,0l-4.5,32.2l5.1,0c3.2,0,5.8-1.3,7.8-3.8
			c2-2.5,3.7-6.4,5.3-11.6l1.5,0l-2.3,16.9L27.5,71.1z"/>
		<path class="st2" d="M85.1,65.5c-2.7,4.2-6,6.2-10.1,6.2c-2.1,0-3.8-0.8-5.2-2.5c-1.4-1.7-2.1-3.8-2.1-6.2c0-1.2,0.1-2.6,0.3-4.2
			L72.1,29l-4.3,0l0.3-1.5l4.1,0c3.3,0,5.9-0.3,8.1-0.9l-5,36c-0.1,0.3-0.1,0.8-0.1,1.5c0,3.1,1,4.7,2.9,4.7c1.2,0,2.6-0.7,4.2-2.2
			c1.6-1.4,2.6-4.1,3.1-8l4.3-31.3l7.9,0l-5,35.5c-0.2,1-0.3,2.1-0.3,3.2c0,1.8,0.5,2.7,1.4,2.7c1.7,0,3-2.1,4.2-6.4l1.5,0
			c-1.7,6.1-4.5,9.2-8.3,9.2c-1.4,0-2.7-0.5-3.8-1.6C86.1,68.9,85.4,67.4,85.1,65.5z"/>
		<path class="st2" d="M126,34.5c0.1-1,0.2-1.7,0.2-2.3c0-2.1-0.8-3.2-2.2-3.2c-1.3,0-2.9,1.1-4.8,3.3c-1.9,2.2-3.1,4.6-3.4,7.4
			L111.4,71l-7.8,0l5.8-42l-4.3,0l0.3-1.5l4.1,0c3.3,0,5.9-0.3,8.1-0.9l-1,6.4c2.9-4.6,6.3-6.8,10.1-6.8c4.6,0,6.9,2.5,6.9,7.7
			c0,0.8-1.3,10.5-3.8,29c-0.2,1-0.3,2.1-0.3,3.2c0,1.8,0.5,2.7,1.4,2.7c1.7,0,3-2.1,4.2-6.4l1.5,0c-1.7,6.1-4.5,9.2-8.3,9.2
			c-1.7,0-3.2-0.8-4.4-2.3c-1.2-1.5-1.8-3.5-1.8-5.9c0-0.8,0.1-1.7,0.2-2.6L126,34.5z"/>
		<path class="st2" d="M141.6,117.4c-1.7,0-3.2-0.8-4.4-2.3c-1.2-1.5-1.8-3.5-1.8-5.9c0-0.8,0.1-1.7,0.2-2.6l10.8-77.8l-4.3,0
			l0.3-1.5l4.1,0c3.3,0,5.9-0.3,8.1-0.9l-11.4,82.3c-0.2,1.4-0.3,2.5-0.3,3.2c0,1.8,0.5,2.7,1.4,2.7c1.7,0,3.1-2.1,4.2-6.4l1.5,0
			C148.3,114.4,145.5,117.4,141.6,117.4z M152.7,14.8c-1.2,0-2.2-0.4-3.1-1.3c-0.9-0.9-1.3-1.9-1.3-3.1c0-1.2,0.4-2.3,1.3-3.1
			c0.8-0.9,1.9-1.3,3.1-1.3c1.2,0,2.3,0.4,3.1,1.3c0.8,0.9,1.3,1.9,1.3,3.1c0,1.2-0.4,2.2-1.3,3.1C155,14.4,154,14.8,152.7,14.8z"/>
		<path class="st2" d="M170.5,71.5c-3,0-5.6-1.6-7.8-4.8c-2.2-3.2-3.3-7.2-3.3-12c0-7.2,2-13.8,5.9-19.8c4-5.9,8.1-8.9,12.5-8.9
			c2.3,0,4.2,0.6,5.6,2c1.4,1.3,2.1,3.1,2.2,5.3c0,1.7-0.4,3-1.3,4.1c-0.9,1-2,1.6-3.5,1.6c-0.9,0-1.7-0.3-2.3-1
			c-0.7-0.6-1-1.4-1-2.3c0-2.2,1.1-3.6,3.2-4.2c1.1-0.3,1.6-0.7,1.6-1.1c0-0.7-0.4-1.4-1.2-1.9c-0.8-0.5-1.9-0.8-3.3-0.8
			c-1.7,0-3.2,0.7-4.5,2.2c-1.2,1.4-2.1,3-2.5,4.8c-0.4,1.7-1.2,6.9-2.4,15.4c-1.2,8.5-1.8,13.1-1.8,13.9c0,4,1.4,6,4.2,6
			c5.2,0,8.7-4.3,10.6-13l1.6,0C180.9,66.6,176.7,71.5,170.5,71.5z"/>
		<path class="st2" d="M201,71.5c-3,0-5.7-1.6-8-4.9c-2.3-3.3-3.5-7.2-3.5-11.9c0-7.2,2-13.8,5.9-19.8c4-5.9,8-8.9,12.2-8.9
			c2.9,0,5.2,0.9,7.1,2.6c1.9,1.7,2.8,3.9,2.9,6.5c0,4.1-1.5,7.4-4.6,10c-3.1,2.6-8,4.9-14.8,6.9c-1,7.1-1.5,11-1.5,11.8
			c0,1.9,0.4,3.4,1.3,4.4c0.9,1.1,2,1.6,3.4,1.6c2.6,0,4.8-1.2,6.8-3.5c2-2.3,3.4-5.7,4.4-10.2l1.6,0c-1.2,5-2.9,8.8-5.2,11.5
			C206.7,70.2,204,71.5,201,71.5z M198.4,50.3c5.2-1.7,8.5-4.1,9.9-7.2c1.4-3.1,2.1-6.5,2.1-10.1c0-2.1-0.2-3.5-0.7-4.3
			c-0.5-0.8-1.2-1.2-2.2-1.2c-1.6,0-3.2,1.1-4.6,3.1c-1.5,2.1-2.4,4.8-2.9,8.1L198.4,50.3z"/>
	</g>
	<text transform="matrix(1 0 0 1 219.9731 65.2397)" class="st3 st4 st5">/&gt;</text>
	<g>
		<text transform="matrix(1 0 0 1 5.4976 65.2387)" class="st3 st4 st5">&lt;</text>
	</g>
	<text transform="matrix(1 0 0 1 5.4976 137.1293)" class="st6 st7 st8">Frontend Developer | Designer</text>
</g>
</svg>
